<?xml version="1.0" encoding="UTF-8"?>
<svg width="753px" height="316px" viewBox="0 0 753 316" version="1.1" xmlns="http://www.w3.org/2000/svg" xmlns:xlink="http://www.w3.org/1999/xlink">
    <title>Our Direction 2</title>
    <defs>
        <path d="M57.6,115.04 C73.7066667,115.04 87.3066667,109.6 98.4,98.72 C109.493333,87.84 115.04,74.08 115.04,57.44 C115.04,40.8 109.52,27.0666667 98.48,16.24 C87.44,5.41333333 73.84,0 57.68,0 C41.52,0 27.8666667,5.41333333 16.72,16.24 C5.57333333,27.0666667 5.68434189e-14,40.8 5.68434189e-14,57.44 C5.68434189e-14,74.08 5.54666667,87.84 16.64,98.72 C27.84,109.6 41.4933333,115.04 57.6,115.04 Z M57.52,89.76 C48.5066667,89.76 41.3066667,86.8266667 35.92,80.96 C30.5333333,75.0933333 27.84,67.2533333 27.84,57.44 C27.84,47.6266667 30.5333333,39.7866667 35.92,33.92 C41.3066667,28.0533333 48.5066667,25.12 57.52,25.12 C66.5333333,25.12 73.7333333,28.0533333 79.12,33.92 C84.5066667,39.7866667 87.2,47.6266667 87.2,57.44 C87.2,67.2533333 84.48,75.0933333 79.04,80.96 C73.7066667,86.8266667 66.5333333,89.76 57.52,89.76 Z M166.24,114.88 C178.613333,114.88 187.626667,110.186667 193.28,100.8 L193.28,100.8 L193.28,113.92 L220.64,113.92 L220.64,24.64 L193.28,24.64 L193.28,73.12 C193.28,78.88 191.76,83.3333333 188.72,86.48 C185.68,89.6266667 181.493333,91.2 176.16,91.2 C170.826667,91.2 166.64,89.6266667 163.6,86.48 C160.56,83.3333333 159.04,78.88 159.04,73.12 L159.04,73.12 L159.04,24.64 L131.84,24.64 L131.84,76.8 C131.84,88.5333333 135.013333,97.8133333 141.36,104.64 C147.706667,111.466667 156,114.88 166.24,114.88 Z M272,113.92 L272,71.68 C272,64.2133333 273.573333,58.9866667 276.72,56 C279.866667,53.0133333 284.586667,51.52 290.88,51.52 L290.88,51.52 L297.6,51.52 L297.6,23.68 C286.933333,23.68 278.4,29.5466667 272,41.28 L272,41.28 L272,24.64 L244.64,24.64 L244.64,113.92 L272,113.92 Z M46.08,313.92 C64,313.92 78.72,308.693333 90.24,298.24 C101.76,287.786667 107.52,274.266667 107.52,257.68 C107.52,241.093333 101.76,227.6 90.24,217.2 C78.72,206.8 64,201.6 46.08,201.6 L46.08,201.6 L6.56,201.6 L6.56,313.92 L46.08,313.92 Z M46.08,293.12 L33.92,293.12 L33.92,222.4 L46.08,222.4 C56.5333333,222.4 64.7466667,225.6 70.72,232 C76.6933333,238.4 79.68,246.986667 79.68,257.76 C79.68,268.533333 76.6933333,277.12 70.72,283.52 C64.7466667,289.92 56.5333333,293.12 46.08,293.12 L46.08,293.12 Z M138.4,219.2 C142.88,219.2 146.666667,217.653333 149.76,214.56 C152.853333,211.466667 154.4,207.653333 154.4,203.12 C154.4,198.586667 152.853333,194.773333 149.76,191.68 C146.666667,188.586667 142.88,187.04 138.4,187.04 C133.92,187.04 130.133333,188.586667 127.04,191.68 C123.946667,194.773333 122.4,198.586667 122.4,203.12 C122.4,207.653333 123.946667,211.466667 127.04,214.56 C130.133333,217.653333 133.92,219.2 138.4,219.2 Z M152.16,313.92 L152.16,224.64 L124.8,224.64 L124.8,313.92 L152.16,313.92 Z M203.52,313.92 L203.52,271.68 C203.52,264.213333 205.093333,258.986667 208.24,256 C211.386667,253.013333 216.106667,251.52 222.4,251.52 L222.4,251.52 L229.12,251.52 L229.12,223.68 C218.453333,223.68 209.92,229.546667 203.52,241.28 L203.52,241.28 L203.52,224.64 L176.16,224.64 L176.16,313.92 L203.52,313.92 Z M281.92,315.04 C292.48,315.04 301.6,312.293333 309.28,306.8 C316.96,301.306667 322.08,294.08 324.64,285.12 L324.64,285.12 L295.04,285.12 C293.76,286.72 292.72,287.866667 291.92,288.56 C291.12,289.253333 289.866667,289.946667 288.16,290.64 C286.453333,291.333333 283.866667,291.68 280.4,291.68 C276.933333,291.68 273.706667,290.426667 270.72,287.92 C267.733333,285.413333 265.973333,282.186667 265.44,278.24 L265.44,278.24 L326.88,278.24 C327.306667,275.573333 327.52,272.693333 327.52,269.6 C327.52,255.2 323.2,243.946667 314.56,235.84 C305.92,227.733333 295.04,223.68 281.92,223.68 C268.8,223.68 258.106667,227.786667 249.84,236 C241.573333,244.213333 237.44,255.253333 237.44,269.12 C237.44,282.986667 241.6,294.106667 249.92,302.48 C258.24,310.853333 268.906667,315.04 281.92,315.04 Z M299.04,261.12 L265.6,261.12 C266.346667,256.96 268.213333,253.573333 271.2,250.96 C274.186667,248.346667 277.866667,247.04 282.24,247.04 C286.613333,247.04 290.4,248.346667 293.6,250.96 C296.8,253.573333 298.613333,256.96 299.04,261.12 L299.04,261.12 Z M383.04,315.04 C393.706667,315.04 402.88,312.213333 410.56,306.56 C418.24,300.906667 423.306667,293.28 425.76,283.68 L425.76,283.68 L396.16,283.68 C394.666667,286.666667 392.96,288.746667 391.04,289.92 C389.12,291.093333 386.453333,291.68 383.04,291.68 C377.6,291.68 373.466667,289.626667 370.64,285.52 C367.813333,281.413333 366.4,276 366.4,269.28 C366.4,262.56 367.813333,257.146667 370.64,253.04 C373.466667,248.933333 377.786667,246.88 383.6,246.88 C389.413333,246.88 393.6,249.546667 396.16,254.88 L396.16,254.88 L425.76,254.88 C423.306667,244.853333 418.293333,237.146667 410.72,231.76 C403.146667,226.373333 393.92,223.68 383.04,223.68 C369.92,223.68 359.226667,227.813333 350.96,236.08 C342.693333,244.346667 338.56,255.413333 338.56,269.28 C338.56,283.146667 342.666667,294.24 350.88,302.56 C359.2,310.88 369.92,315.04 383.04,315.04 Z M488.8,313.92 L488.8,290.72 L479.04,290.72 C473.493333,290.72 470.72,288.64 470.72,284.48 L470.72,284.48 L470.72,247.36 L488.64,247.36 L488.64,224.64 L470.72,224.64 L470.72,202.88 L443.36,202.88 L443.36,224.64 L435.04,224.64 L435.04,247.36 L443.36,247.36 L443.36,284.48 C443.36,295.253333 446.106667,302.853333 451.6,307.28 C457.093333,311.706667 464.853333,313.92 474.88,313.92 L474.88,313.92 L488.8,313.92 Z M521.12,219.2 C525.6,219.2 529.386667,217.653333 532.48,214.56 C535.573333,211.466667 537.12,207.653333 537.12,203.12 C537.12,198.586667 535.573333,194.773333 532.48,191.68 C529.386667,188.586667 525.6,187.04 521.12,187.04 C516.64,187.04 512.853333,188.586667 509.76,191.68 C506.666667,194.773333 505.12,198.586667 505.12,203.12 C505.12,207.653333 506.666667,211.466667 509.76,214.56 C512.853333,217.653333 516.64,219.2 521.12,219.2 Z M534.88,313.92 L534.88,224.64 L507.52,224.64 L507.52,313.92 L534.88,313.92 Z M599.36,315.04 C612.586667,315.04 623.626667,310.826667 632.48,302.4 C641.333333,293.973333 645.76,282.88 645.76,269.12 C645.76,255.36 641.306667,244.346667 632.4,236.08 C623.493333,227.813333 612.426667,223.68 599.2,223.68 C585.973333,223.68 574.88,227.813333 565.92,236.08 C556.96,244.346667 552.48,255.36 552.48,269.12 C552.48,282.88 556.96,293.973333 565.92,302.4 C574.986667,310.826667 586.133333,315.04 599.36,315.04 Z M599.36,291.68 C594.24,291.68 589.786667,289.76 586,285.92 C582.213333,282.08 580.32,276.533333 580.32,269.28 C580.32,262.026667 582.16,256.506667 585.84,252.72 C589.52,248.933333 593.92,247.04 599.04,247.04 C604.16,247.04 608.586667,248.933333 612.32,252.72 C616.053333,256.506667 617.92,262.026667 617.92,269.28 C617.92,276.533333 616.106667,282.08 612.48,285.92 C608.853333,289.76 604.48,291.68 599.36,291.68 Z M690.72,313.92 L690.72,265.44 C690.72,259.68 692.24,255.226667 695.28,252.08 C698.32,248.933333 702.506667,247.36 707.84,247.36 C713.173333,247.36 717.36,248.933333 720.4,252.08 C723.44,255.226667 724.96,259.68 724.96,265.44 L724.96,265.44 L724.96,313.92 L752.16,313.92 L752.16,261.76 C752.16,250.026667 748.986667,240.746667 742.64,233.92 C736.293333,227.093333 728,223.68 717.76,223.68 C705.386667,223.68 696.373333,228.373333 690.72,237.76 L690.72,237.76 L690.72,224.64 L663.36,224.64 L663.36,313.92 L690.72,313.92 Z" id="path-1"></path>
    </defs>
    <g id="页面-1" stroke="none" stroke-width="1" fill="none" fill-rule="evenodd">
        <g id="Home" transform="translate(-340.000000, -2021.000000)">
            <g id="3" transform="translate(0.000000, 1935.500000)">
                <g id="Our-Direction-2" transform="translate(340.000000, 85.500000)">
                    <mask id="mask-2" fill="white">
                        <use xlink:href="#path-1"></use>
                    </mask>
                    <use id="OurDirection" fill="#373A3D" fill-rule="nonzero" xlink:href="#path-1"></use>
                </g>
            </g>
        </g>
    </g>
</svg>