<?xml version="1.0" encoding="UTF-8"?>
<svg width="1920px" height="1666px" viewBox="0 0 1920 1666" version="1.1" xmlns="http://www.w3.org/2000/svg" xmlns:xlink="http://www.w3.org/1999/xlink">
    <title>编组 14</title>
    <defs>
        <linearGradient x1="2.12503626e-15%" y1="12.3541124%" x2="100%" y2="87.6458876%" id="linearGradient-1">
            <stop stop-color="#DDFFE0" offset="0%"></stop>
            <stop stop-color="#F3FFE9" offset="100%"></stop>
        </linearGradient>
        <rect id="path-2" x="0" y="0" width="1920" height="1666" rx="60"></rect>
        <linearGradient x1="36.232663%" y1="-0.840492509%" x2="31.9598987%" y2="70.0158142%" id="linearGradient-4">
            <stop stop-color="#FF0097" stop-opacity="0.3" offset="0%"></stop>
            <stop stop-color="#95FFAD" offset="100%"></stop>
        </linearGradient>
        <linearGradient x1="50%" y1="0%" x2="68.3795724%" y2="75.4497747%" id="linearGradient-5">
            <stop stop-color="#00FFBD" stop-opacity="0.3" offset="0%"></stop>
            <stop stop-color="#A6FFF2" offset="100%"></stop>
        </linearGradient>
        <radialGradient cx="50%" cy="50%" fx="50%" fy="50%" r="50.0244665%" id="radialGradient-6">
            <stop stop-color="#18F195" stop-opacity="0.526824738" offset="0%"></stop>
            <stop stop-color="#18F195" stop-opacity="0" offset="100%"></stop>
        </radialGradient>
    </defs>
    <g id="页面-1" stroke="none" stroke-width="1" fill="none" fill-rule="evenodd">
        <g id="Home" transform="translate(0.000000, -4056.000000)">
            <g id="编组-14" transform="translate(0.000000, 4056.000000)">
                <rect id="矩形" fill="#FFFFFF" x="0" y="0" width="1920" height="1666" rx="60"></rect>
                <g id="矩形-3">
                    <mask id="mask-3" fill="white">
                        <use xlink:href="#path-2"></use>
                    </mask>
                    <use id="矩形" fill="url(#linearGradient-1)" opacity="0.604259673" xlink:href="#path-2"></use>
                    <path d="M1212.25319,95.6881976 C1221.2137,68.477666 1243.10418,44.3750022 1274.7742,24.0270052 C1306.43256,3.68603493 1347.72825,-12.8134899 1395.2271,-24.8637678 C1490.22267,-48.963621 1609.75563,-55.1993825 1725.925,-38.9977857 C1842.10496,-22.7944324 1954.73502,15.8248481 2036.05817,81.2696022 C2117.30721,146.659197 2167.35168,238.851781 2158.48751,362.51302 C2153.94956,425.777067 2123.11198,496.292571 2077.02321,560.754654 C2030.94856,625.199171 1969.73919,683.439194 1904.67643,722.19444 C1839.58545,760.967251 1770.84929,780.114753 1709.61168,766.771228 C1648.49052,753.448783 1594.39153,707.649365 1558.69135,615.544614 C1486.81462,430.130049 1385.35124,343.892514 1309.28272,281.935416 C1307.01022,280.083905 1304.76206,278.256987 1302.53861,276.447636 C1267.49372,247.954749 1238.69009,224.531558 1221.42754,198.245025 C1203.2094,170.500471 1197.82809,139.499086 1212.25319,95.6881976 Z" id="路径备份" stroke="url(#linearGradient-4)" stroke-width="8" opacity="0.3" mask="url(#mask-3)"></path>
                    <path d="M-403.579241,858.392191 C-396.097763,815.898577 -377.820542,778.258398 -351.378014,746.481733 C-324.945207,714.716042 -290.465828,688.949385 -250.80719,670.130941 C-171.491683,632.495151 -71.6889539,622.757008 25.3053854,648.058403 C122.308564,673.362541 216.347788,733.672748 284.247656,835.87524 C352.085652,937.991591 393.869733,1081.96511 386.468688,1275.08199 C382.679778,1373.87896 356.932275,1484.00024 318.45097,1584.66813 C279.981449,1685.3086 228.875352,1776.25974 174.551923,1836.78228 C120.204923,1897.33225 62.8144202,1927.23415 11.6847532,1906.39609 C-39.3476866,1885.59096 -84.5170379,1814.06781 -114.324508,1670.23145 C-174.337196,1380.67684 -259.052932,1246.00308 -322.5655,1149.24713 C-324.462902,1146.3557 -326.339974,1143.50267 -328.196422,1140.67708 C-357.456769,1096.18086 -381.506039,1059.60179 -395.919219,1018.55114 C-411.130251,975.223569 -415.623321,926.809928 -403.579241,858.392191 Z" id="路径备份" stroke="url(#linearGradient-5)" stroke-width="15" opacity="0.3" mask="url(#mask-3)"></path>
                </g>
                <g id="背景" transform="translate(341.000000, 625.000000)" fill="url(#radialGradient-6)" opacity="0.3">
                    <circle id="椭圆形备份-16" cx="440" cy="440" r="440"></circle>
                </g>
            </g>
        </g>
    </g>
</svg>