<?xml version="1.0" encoding="UTF-8"?>
<svg width="32px" height="32px" viewBox="0 0 32 32" version="1.1" xmlns="http://www.w3.org/2000/svg" xmlns:xlink="http://www.w3.org/1999/xlink">
    <title>right-circle</title>
    <g id="页面-1" stroke="none" stroke-width="1" fill="none" fill-rule="evenodd">
        <g id="Home" transform="translate(-1318.000000, -132.000000)" fill-rule="nonzero">
            <g id="right-circle" transform="translate(1318.000000, 132.000000)">
                <rect id="矩形" fill="#000000" opacity="0" x="0" y="0" width="32" height="32"></rect>
                <path d="M20.834375,15.796875 L13.146875,10.234375 C12.98125,10.115625 12.75,10.23125 12.75,10.4375 L12.75,11.903125 C12.75,12.221875 12.903125,12.525 13.1625,12.7125 L17.70625,16 L13.1625,19.2875 C12.903125,19.475 12.75,19.775 12.75,20.096875 L12.75,21.5625 C12.75,21.765625 12.98125,21.884375 13.146875,21.765625 L20.834375,16.203125 C20.971875,16.103125 20.971875,15.896875 20.834375,15.796875 Z M16,2 C8.26875,2 2,8.26875 2,16 C2,23.73125 8.26875,30 16,30 C23.73125,30 30,23.73125 30,16 C30,8.26875 23.73125,2 16,2 Z M16,27.625 C9.58125,27.625 4.375,22.41875 4.375,16 C4.375,9.58125 9.58125,4.375 16,4.375 C22.41875,4.375 27.625,9.58125 27.625,16 C27.625,22.41875 22.41875,27.625 16,27.625 Z" id="形状" fill="#FFFFFF"></path>
            </g>
        </g>
    </g>
</svg>