<?xml version="1.0" encoding="UTF-8"?>
<svg id="_レイヤー_2" data-name="レイヤー_2" xmlns="http://www.w3.org/2000/svg" viewBox="0 0 741.99 245.41">
  <defs>
    <style>
      .cls-1 {
        fill: none;
      }

      .cls-2 {
        fill: #fff;
      }
    </style>
  </defs>
  <g id="data">
    <g>
      <path class="cls-2" d="M494.93,116.44h-.59c-5.2-10.85-16.49-18.72-31.06-18.72-20.97,0-37,15.61-40.04,36.24-3.08-20.56-18.99-36.09-38.97-36.09-14.12,0-26.9,7.43-31.95,18.87h-.59v-16.64h-18.28v108.48h18.72v-42.06h.59c7.13,12.33,17.98,18.13,31.5,18.13,20.03,0,35.97-15.61,39-36.24,3.09,20.56,19.1,36.09,40.01,36.09,13.22,0,23.92-5.35,31.06-18.28h.59v16.05h18.13v-82.17h-18.13v16.35ZM379.36,167.11c-13.67,0-24.96-10.1-24.96-25.85s11.29-25.86,24.96-25.86,25.26,10.1,25.26,25.86-11.44,25.85-25.26,25.85ZM467.14,166.96c-14.71,0-24.81-11.14-24.81-25.86s10.1-25.85,24.81-25.85,25.11,11,25.11,25.85-10.25,25.86-25.11,25.86ZM561.24,164.88h16.88v17.39h-35.46v-64.79h-12.63v-17.39h12.63v-16.97h18.57v16.97h13.08v17.39h-13.08v47.4ZM631.43,97.72c-24.07,0-43.69,19.02-43.69,43.24,0,2.36.2,4.67.58,6.94h-10.18v16.97h16.97c7.85,11.59,21.2,19.33,36.32,19.33,24.07,0,43.69-19.61,43.69-43.24s-19.61-43.24-43.69-43.24ZM631.43,166.67c-13.82,0-24.96-10.4-24.96-25.71s11.14-25.71,24.96-25.71,25.26,9.81,25.26,25.71-11.29,25.71-25.26,25.71ZM513.06,83.12h16.97v16.97h-16.97v-16.97ZM168.11,168.07h16.97v16.97h-16.97v-16.97ZM316.47,83.12h16.97v16.97h-16.94v108.49h-39.78v-17.49h20.06v-17.2c0-2.82.14-4.93.28-6.48h-.56c-1.41,2.53-9.69,10.25-26.15,10.25-19.38,0-35.82-16.17-35.82-32.79v-27.41h-30.73v50.61h-18.72v-68h69.18v44.8c0,6.76,10.71,16.94,22.05,16.94s20.47-10.18,20.47-16.94v-44.8h19.69v-16.95ZM156.96,156.04l11.14,12.04c-9.81,9.96-23.48,15.9-38.48,15.9-30.46,0-54.83-23.63-54.83-55.13s24.37-54.68,54.83-54.68c15.3,0,29.27,6.24,39.23,16.49l-.04.04v16.96h-16.97v-9.86c-5.94-3.81-13.32-5.96-22.22-5.96-20.06,0-35.51,15.16-35.51,37s15.45,37.45,35.51,37.45c11.74,0,20.65-3.71,27.34-10.25Z"/>
      <rect class="cls-1" width="741.99" height="245.41"/>
    </g>
  </g>
</svg>