<?xml version="1.0" encoding="UTF-8"?>
<svg width="90px" height="90px" viewBox="0 0 90 90" version="1.1" xmlns="http://www.w3.org/2000/svg" xmlns:xlink="http://www.w3.org/1999/xlink">
    <title>箭头</title>
    <g id="页面-1" stroke="none" stroke-width="1" fill="none" fill-rule="evenodd">
        <g id="Home" transform="translate(-1451.000000, -4256.000000)" fill-rule="nonzero">
            <g id="4" transform="translate(0.000000, 4056.000000)">
                <g transform="translate(340.000000, 160.000000)" id="learn-more">
                    <g transform="translate(1070.000000, 0.000000)">
                        <g id="编组-24" transform="translate(-40.000000, -0.000000)">
                            <g id="箭头" transform="translate(81.000000, 40.000000)">
                                <circle id="椭圆形" fill="#18F195" cx="45" cy="45" r="45"></circle>
                                <g id="右箭头" transform="translate(27.000000, 30.000000)" fill="#000000">
                                    <path d="M35.5602633,13.8246621 L23.5130578,0.486855849 C22.9267785,-0.162285283 21.9761389,-0.162285283 21.3898596,0.486855849 C20.8035333,1.13599698 20.8035333,2.18842944 21.3898596,2.83757057 L30.9281591,13.3977364 L1.44721292,13.3977364 C0.647928759,13.3977364 0,14.1151316 0,15 C0,15.8849074 0.647975676,16.6022506 1.44721292,16.6022506 L30.928206,16.6022506 L21.3898596,27.1624684 C20.8035333,27.8115576 20.8035333,28.864042 21.3898596,29.5131831 C21.6829992,29.8377277 22.0672524,30 22.4514587,30 C22.835665,30 23.2199182,29.8377277 23.5130578,29.5131831 L35.5602633,16.1753249 C35.8418216,15.8636104 36,15.44083 36,15 C36,14.559157 35.8418216,14.1363766 35.5602633,13.8246621 L35.5602633,13.8246621 Z" id="路径"></path>
                                </g>
                            </g>
                        </g>
                    </g>
                </g>
            </g>
        </g>
    </g>
</svg>