<?xml version="1.0" encoding="UTF-8"?>
<svg width="515px" height="131px" viewBox="0 0 515 131" version="1.1" xmlns="http://www.w3.org/2000/svg" xmlns:xlink="http://www.w3.org/1999/xlink">
    <title>Vision 2</title>
    <g id="页面-1" stroke="none" stroke-width="1" fill="none" fill-rule="evenodd">
        <g id="Home" transform="translate(-399.000000, -959.000000)" fill-rule="nonzero" stroke="#6C726B" stroke-width="2">
            <g id="2" transform="translate(340.000000, 900.000000)">
                <g id="Vision-2" transform="translate(61.120000, 60.120000)">
                    <path d="M74.08,126.88 L113.92,14.56 L84.8,14.56 L56.96,100.16 L29.12,14.56 L0,14.56 L39.84,126.88 L74.08,126.88 Z M140.64,32.16 C145.12,32.16 148.906667,30.6133333 152,27.52 C155.093333,24.4266667 156.64,20.6133333 156.64,16.08 C156.64,11.5466667 155.093333,7.73333333 152,4.64 C148.906667,1.54666667 145.12,0 140.64,0 C136.16,0 132.373333,1.54666667 129.28,4.64 C126.186667,7.73333333 124.64,11.5466667 124.64,16.08 C124.64,20.6133333 126.186667,24.4266667 129.28,27.52 C132.373333,30.6133333 136.16,32.16 140.64,32.16 Z M154.4,126.88 L154.4,37.6 L127.04,37.6 L127.04,126.88 L154.4,126.88 Z M211.2,128 C222.08,128 231.093333,125.36 238.24,120.08 C245.386667,114.8 248.96,108 248.96,99.68 C248.96,94.6666667 247.706667,90.4266667 245.2,86.96 C242.693333,83.4933333 239.573333,81.0133333 235.84,79.52 C228.586667,76.4266667 220.533333,74.1333333 211.68,72.64 C202.933333,71.1466667 198.56,68.4266667 198.56,64.48 C198.56,60.1066667 202.133333,57.92 209.28,57.92 C212.906667,57.92 215.626667,58.48 217.44,59.6 C219.253333,60.72 220.32,62.8266667 220.64,65.92 L220.64,65.92 L248.64,65.92 C248.213333,56.8533333 244.48,49.7066667 237.44,44.48 C230.4,39.2533333 221.146667,36.64 209.68,36.64 C198.213333,36.64 189.12,39.3066667 182.4,44.64 C175.68,49.9733333 172.32,56.5866667 172.32,64.48 C172.32,70.24 174.053333,74.9066667 177.52,78.48 C180.986667,82.0533333 185.2,84.56 190.16,86 C195.12,87.44 200.053333,88.64 204.96,89.6 C209.866667,90.56 214.053333,91.7333333 217.52,93.12 C220.986667,94.5066667 222.72,96.3733333 222.72,98.72 C222.72,101.066667 221.68,102.986667 219.6,104.48 C217.52,105.973333 214.88,106.72 211.68,106.72 C204.746667,106.72 200.906667,104 200.16,98.56 L200.16,98.56 L172.16,98.56 C172.8,108.266667 176.746667,115.6 184,120.56 C191.253333,125.52 200.32,128 211.2,128 Z M280.8,32.16 C285.28,32.16 289.066667,30.6133333 292.16,27.52 C295.253333,24.4266667 296.8,20.6133333 296.8,16.08 C296.8,11.5466667 295.253333,7.73333333 292.16,4.64 C289.066667,1.54666667 285.28,0 280.8,0 C276.32,0 272.533333,1.54666667 269.44,4.64 C266.346667,7.73333333 264.8,11.5466667 264.8,16.08 C264.8,20.6133333 266.346667,24.4266667 269.44,27.52 C272.533333,30.6133333 276.32,32.16 280.8,32.16 Z M294.56,126.88 L294.56,37.6 L267.2,37.6 L267.2,126.88 L294.56,126.88 Z M359.04,128 C372.266667,128 383.306667,123.786667 392.16,115.36 C401.013333,106.933333 405.44,95.84 405.44,82.08 C405.44,68.32 400.986667,57.3066667 392.08,49.04 C383.173333,40.7733333 372.106667,36.64 358.88,36.64 C345.653333,36.64 334.56,40.7733333 325.6,49.04 C316.64,57.3066667 312.16,68.32 312.16,82.08 C312.16,95.84 316.64,106.933333 325.6,115.36 C334.666667,123.786667 345.813333,128 359.04,128 Z M359.04,104.64 C353.92,104.64 349.466667,102.72 345.68,98.88 C341.893333,95.04 340,89.4933333 340,82.24 C340,74.9866667 341.84,69.4666667 345.52,65.68 C349.2,61.8933333 353.6,60 358.72,60 C363.84,60 368.266667,61.8933333 372,65.68 C375.733333,69.4666667 377.6,74.9866667 377.6,82.24 C377.6,89.4933333 375.786667,95.04 372.16,98.88 C368.533333,102.72 364.16,104.64 359.04,104.64 Z M450.4,126.88 L450.4,78.4 C450.4,72.64 451.92,68.1866667 454.96,65.04 C458,61.8933333 462.186667,60.32 467.52,60.32 C472.853333,60.32 477.04,61.8933333 480.08,65.04 C483.12,68.1866667 484.64,72.64 484.64,78.4 L484.64,78.4 L484.64,126.88 L511.84,126.88 L511.84,74.72 C511.84,62.9866667 508.666667,53.7066667 502.32,46.88 C495.973333,40.0533333 487.68,36.64 477.44,36.64 C465.066667,36.64 456.053333,41.3333333 450.4,50.72 L450.4,50.72 L450.4,37.6 L423.04,37.6 L423.04,126.88 L450.4,126.88 Z" id="Vision"></path>
                </g>
            </g>
        </g>
    </g>
</svg>