<?xml version="1.0" encoding="UTF-8"?>
<svg width="335px" height="39px" viewBox="0 0 335 39" version="1.1" xmlns="http://www.w3.org/2000/svg" xmlns:xlink="http://www.w3.org/1999/xlink">
    <title>OurDirection 2</title>
    <defs>
        <path d="M17.5366943,39 C22.4404737,39 26.581082,37.3448491 29.9585195,34.0345473 C33.3359569,30.7242455 35.0246756,26.5376874 35.0246756,21.4748729 C35.0246756,16.4120584 33.3440757,12.2336138 29.982876,8.93953894 C26.6216762,5.64546412 22.4810679,3.99842671 17.5610508,3.99842671 C12.6410338,3.99842671 8.48418776,5.64546412 5.09051266,8.93953894 C1.69683755,12.2336138 0,16.4120584 0,21.4748729 C0,26.5376874 1.68871871,30.7242455 5.06615614,34.0345473 C8.47606892,37.3448491 12.632915,39 17.5366943,39 Z M17.5123378,31.3084164 C14.7681699,31.3084164 12.5760831,30.4159331 10.9360774,28.6309665 C9.29607176,26.8459998 8.47606892,24.4606353 8.47606892,21.4748729 C8.47606892,18.4891105 9.29607176,16.103746 10.9360774,14.3187793 C12.5760831,12.5338127 14.7681699,11.6413294 17.5123378,11.6413294 C20.2565057,11.6413294 22.4485925,12.5338127 24.0885982,14.3187793 C25.7286038,16.103746 26.5486067,18.4891105 26.5486067,21.4748729 C26.5486067,24.4606353 25.720485,26.8459998 24.0642417,28.6309665 C22.4404737,30.4159331 20.2565057,31.3084164 17.5123378,31.3084164 Z M50.6128483,38.9513191 C54.3799901,38.9513191 57.124158,37.5233458 58.8453521,34.6673991 L58.8453521,34.6673991 L58.8453521,38.6592336 L67.1752819,38.6592336 L67.1752819,11.4952866 L58.8453521,11.4952866 L58.8453521,26.2456019 C58.8453521,27.9981147 58.3825782,29.3530666 57.4570304,30.3104578 C56.5314827,31.267849 55.2568248,31.7465446 53.6330568,31.7465446 C52.0092888,31.7465446 50.7346309,31.267849 49.8090832,30.3104578 C48.8835354,29.3530666 48.4207615,27.9981147 48.4207615,26.2456019 L48.4207615,26.2456019 L48.4207615,11.4952866 L40.1395448,11.4952866 L40.1395448,27.3652628 C40.1395448,30.9351961 41.1056867,33.7586888 43.0379706,35.8357409 C44.9702546,37.912793 47.4952138,38.9513191 50.6128483,38.9513191 Z M82.8121676,38.6592336 L82.8121676,25.8074738 C82.8121676,23.535698 83.2911792,21.945455 84.2492023,21.0367447 C85.2072254,20.1280344 86.6442601,19.6736793 88.5603063,19.6736793 L88.5603063,19.6736793 L90.606254,19.6736793 L90.606254,11.2032012 C87.358718,11.2032012 84.7606892,12.9881678 82.8121676,16.5581011 L82.8121676,16.5581011 L82.8121676,11.4952866 L74.4822378,11.4952866 L74.4822378,38.6592336 L82.8121676,38.6592336 Z M120.029355,38.6039605 C125.485216,38.6039605 129.966816,37.0137175 133.474154,33.8332315 C136.981493,30.6527455 138.735163,26.5392087 138.735163,21.4926211 C138.735163,16.4460336 136.981493,12.3406103 133.474154,9.17635127 C129.966816,6.01209221 125.485216,4.42996268 120.029355,4.42996268 L120.029355,4.42996268 L107.997235,4.42996268 L107.997235,38.6039605 L120.029355,38.6039605 Z M120.029355,32.2754424 L116.327164,32.2754424 L116.327164,10.7584808 L120.029355,10.7584808 C123.211941,10.7584808 125.712543,11.732099 127.531164,13.6793353 C129.349784,15.6265717 130.259094,18.2391138 130.259094,21.5169616 C130.259094,24.7948095 129.349784,27.4073515 127.531164,29.3545879 C125.712543,31.3018242 123.211941,32.2754424 120.029355,32.2754424 L120.029355,32.2754424 Z M148.136779,9.78486263 C149.500745,9.78486263 150.65362,9.31428051 151.595405,8.37311628 C152.537191,7.43195205 153.008083,6.27172373 153.008083,4.89243131 C153.008083,3.5131389 152.537191,2.35291058 151.595405,1.41174635 C150.65362,0.470582117 149.500745,0 148.136779,0 C146.772814,0 145.619939,0.470582117 144.678154,1.41174635 C143.736368,2.35291058 143.265475,3.5131389 143.265475,4.89243131 C143.265475,6.27172373 143.736368,7.43195205 144.678154,8.37311628 C145.619939,9.31428051 146.772814,9.78486263 148.136779,9.78486263 Z M152.326101,38.6039605 L152.326101,11.4400135 L143.996171,11.4400135 L143.996171,38.6039605 L152.326101,38.6039605 Z M167.962987,38.6039605 L167.962987,25.7522007 C167.962987,23.4804249 168.441998,21.8901819 169.400021,20.9814716 C170.358044,20.0727613 171.795079,19.6184062 173.711125,19.6184062 L173.711125,19.6184062 L175.757073,19.6184062 L175.757073,11.1479281 C172.509537,11.1479281 169.911508,12.9328947 167.962987,16.502828 L167.962987,16.502828 L167.962987,11.4400135 L159.633057,11.4400135 L159.633057,38.6039605 L167.962987,38.6039605 Z M191.832376,38.9447269 C195.047437,38.9447269 197.82408,38.109038 200.162306,36.4376601 C202.500532,34.7662822 204.059349,32.5675279 204.838758,29.841397 L204.838758,29.841397 L195.826845,29.841397 C195.437141,30.3282061 195.120506,30.6770859 194.876941,30.8880365 C194.633376,31.0989871 194.25179,31.3099377 193.732185,31.5208883 C193.212579,31.7318389 192.425051,31.8373142 191.369602,31.8373142 C190.314153,31.8373142 189.331773,31.4559804 188.422463,30.6933129 C187.513153,29.9306453 186.97731,28.9489137 186.814933,27.7481179 L186.814933,27.7481179 L205.52074,27.7481179 C205.650642,26.9367694 205.715592,26.0605131 205.715592,25.1193488 C205.715592,20.7380671 204.40034,17.3141765 201.769836,14.8476771 C199.139332,12.3811778 195.826845,11.1479281 191.832376,11.1479281 C187.837907,11.1479281 184.582252,12.3974047 182.065412,14.896358 C179.548571,17.3953113 178.290151,20.754294 178.290151,24.9733061 C178.290151,29.1923182 179.55669,32.5756413 182.089768,35.1232756 C184.622846,37.6709098 187.870382,38.9447269 191.832376,38.9447269 Z M197.044671,22.5392607 L186.863646,22.5392607 C187.090974,21.2735571 187.659292,20.2431445 188.568602,19.448023 C189.477913,18.6529015 190.598312,18.2553407 191.929802,18.2553407 C193.261292,18.2553407 194.414167,18.6529015 195.388428,19.448023 C196.362689,20.2431445 196.91477,21.2735571 197.044671,22.5392607 L197.044671,22.5392607 Z M222.619017,38.9447269 C225.866553,38.9447269 228.659434,38.0846975 230.99766,36.3646387 C233.335886,34.64458 234.878466,32.3241233 235.625399,29.4032688 L235.625399,29.4032688 L226.613486,29.4032688 C226.158831,30.3119791 225.639226,30.9448309 225.054669,31.3018242 C224.470113,31.6588176 223.658229,31.8373142 222.619017,31.8373142 C220.962774,31.8373142 219.704354,31.2125759 218.843757,29.9630992 C217.98316,28.7136226 217.552861,27.0665852 217.552861,25.021987 C217.552861,22.9773889 217.98316,21.3303515 218.843757,20.0808748 C219.704354,18.8313981 221.019606,18.2066598 222.789513,18.2066598 C224.55942,18.2066598 225.834078,19.0180083 226.613486,20.6407052 L226.613486,20.6407052 L235.625399,20.6407052 C234.878466,17.590035 233.352124,15.2452379 231.046373,13.606314 C228.740623,11.96739 225.931504,11.1479281 222.619017,11.1479281 C218.624548,11.1479281 215.368893,12.4055182 212.852053,14.9206985 C210.335212,17.4358788 209.076792,20.8029749 209.076792,25.021987 C209.076792,29.2409991 210.327094,32.6162088 212.827696,35.147616 C215.360774,37.6790233 218.624548,38.9447269 222.619017,38.9447269 Z M254.818337,38.6039605 L254.818337,31.5452288 L251.846841,31.5452288 C250.158122,31.5452288 249.313763,30.912377 249.313763,29.6466733 L249.313763,29.6466733 L249.313763,18.3527025 L254.769623,18.3527025 L254.769623,11.4400135 L249.313763,11.4400135 L249.313763,4.81940995 L240.983833,4.81940995 L240.983833,11.4400135 L238.450755,11.4400135 L238.450755,18.3527025 L240.983833,18.3527025 L240.983833,29.6466733 C240.983833,32.9245212 241.820074,35.2368643 243.492555,36.5837028 C245.165036,37.9305413 247.527618,38.6039605 250.580302,38.6039605 L250.580302,38.6039605 L254.818337,38.6039605 Z M264.658371,9.78486263 C266.022336,9.78486263 267.175211,9.31428051 268.116996,8.37311628 C269.058782,7.43195205 269.529675,6.27172373 269.529675,4.89243131 C269.529675,3.5131389 269.058782,2.35291058 268.116996,1.41174635 C267.175211,0.470582117 266.022336,0 264.658371,0 C263.294405,0 262.14153,0.470582117 261.199745,1.41174635 C260.257959,2.35291058 259.787067,3.5131389 259.787067,4.89243131 C259.787067,6.27172373 260.257959,7.43195205 261.199745,8.37311628 C262.14153,9.31428051 263.294405,9.78486263 264.658371,9.78486263 Z M268.847692,38.6039605 L268.847692,11.4400135 L260.517762,11.4400135 L260.517762,38.6039605 L268.847692,38.6039605 Z M288.479047,38.9447269 C292.505992,38.9447269 295.867191,37.6627963 298.562646,35.0989351 C301.258101,32.5350739 302.605829,29.1598643 302.605829,24.9733061 C302.605829,20.786748 301.249982,17.4358788 298.53829,14.9206985 C295.826597,12.4055182 292.457279,11.1479281 288.430334,11.1479281 C284.403389,11.1479281 281.025952,12.4055182 278.298022,14.9206985 C275.570091,17.4358788 274.206126,20.786748 274.206126,24.9733061 C274.206126,29.1598643 275.570091,32.5350739 278.298022,35.0989351 C281.058427,37.6627963 284.452102,38.9447269 288.479047,38.9447269 Z M288.479047,31.8373142 C286.92023,31.8373142 285.564383,31.2531433 284.411508,30.0848015 C283.258633,28.9164597 282.682195,27.2288549 282.682195,25.021987 C282.682195,22.8151192 283.242395,21.1356278 284.362795,19.983513 C285.483195,18.8313981 286.822804,18.2553407 288.381621,18.2553407 C289.940438,18.2553407 291.288166,18.8313981 292.424803,19.983513 C293.561441,21.1356278 294.12976,22.8151192 294.12976,25.021987 C294.12976,27.2288549 293.577679,28.9164597 292.473516,30.0848015 C291.369354,31.2531433 290.037864,31.8373142 288.479047,31.8373142 Z M316.294193,38.6039605 L316.294193,23.8536452 C316.294193,22.1011325 316.756967,20.7461806 317.682514,19.7887893 C318.608062,18.8313981 319.88272,18.3527025 321.506488,18.3527025 C323.130256,18.3527025 324.404914,18.8313981 325.330462,19.7887893 C326.256009,20.7461806 326.718783,22.1011325 326.718783,23.8536452 L326.718783,23.8536452 L326.718783,38.6039605 L335,38.6039605 L335,22.7339843 C335,19.164051 334.033858,16.3405583 332.101574,14.2635062 C330.16929,12.1864541 327.644331,11.1479281 324.526696,11.1479281 C320.759555,11.1479281 318.015387,12.5759014 316.294193,15.431848 L316.294193,15.431848 L316.294193,11.4400135 L307.964263,11.4400135 L307.964263,38.6039605 L316.294193,38.6039605 Z" id="path-1"></path>
    </defs>
    <g id="H5-官网2.0" stroke="none" stroke-width="1" fill="none" fill-rule="evenodd">
        <g id="H5首页yemian" transform="translate(-20.000000, -841.000000)">
            <g id="3" transform="translate(0.000000, 800.500000)">
                <g id="OurDirection-2" transform="translate(20.000000, 40.495429)">
                    <mask id="mask-2" fill="white">
                        <use xlink:href="#path-1"></use>
                    </mask>
                    <use id="OurDirection" fill="#373A3D" fill-rule="nonzero" xlink:href="#path-1"></use>
                </g>
            </g>
        </g>
    </g>
</svg>