<?xml version="1.0" encoding="UTF-8"?>
<svg width="375px" height="828px" viewBox="0 0 375 828" version="1.1" xmlns="http://www.w3.org/2000/svg" xmlns:xlink="http://www.w3.org/1999/xlink">
    <title>编组 14</title>
    <defs>
        <linearGradient x1="39.7441451%" y1="1.73472348e-15%" x2="60.2558549%" y2="100%" id="linearGradient-1">
            <stop stop-color="#DDFFE0" offset="0%"></stop>
            <stop stop-color="#F3FFE9" offset="100%"></stop>
        </linearGradient>
        <rect id="path-2" x="0" y="0" width="375" height="828" rx="24"></rect>
        <linearGradient x1="36.232663%" y1="-0.718499769%" x2="31.9598987%" y2="69.9677858%" id="linearGradient-4">
            <stop stop-color="#FF0097" stop-opacity="0.3" offset="0%"></stop>
            <stop stop-color="#95FFAD" offset="100%"></stop>
        </linearGradient>
        <linearGradient x1="50%" y1="0%" x2="68.4237806%" y2="75.4497747%" id="linearGradient-5">
            <stop stop-color="#00FFBD" stop-opacity="0.3" offset="0%"></stop>
            <stop stop-color="#A6FFF2" offset="100%"></stop>
        </linearGradient>
        <radialGradient cx="50%" cy="50%" fx="50%" fy="50%" r="50.0244665%" id="radialGradient-6">
            <stop stop-color="#18F195" stop-opacity="0.526824738" offset="0%"></stop>
            <stop stop-color="#18F195" stop-opacity="0" offset="100%"></stop>
        </radialGradient>
    </defs>
    <g id="H5-官网2.0" stroke="none" stroke-width="1" fill="none" fill-rule="evenodd">
        <g id="H5首页yemian" transform="translate(0.000000, -2126.000000)">
            <g id="编组-14" transform="translate(0.000000, 2126.000000)">
                <rect id="矩形" fill="#FFFFFF" x="0" y="0" width="375" height="828" rx="24"></rect>
                <g id="矩形-3">
                    <mask id="mask-3" fill="white">
                        <use xlink:href="#path-2"></use>
                    </mask>
                    <use id="矩形" fill="url(#linearGradient-1)" opacity="0.604259673" xlink:href="#path-2"></use>
                    <path d="M236.768201,18.6666652 C238.5183,13.3584883 242.793786,8.65658806 248.979335,4.68714088 C255.16261,0.719064437 263.228174,-2.49963038 272.505292,-4.85037487 C291.059115,-9.55172678 314.405396,-10.7681869 337.094727,-7.60761126 C359.786126,-4.44669299 381.784183,3.08708021 397.667611,15.853914 C413.536565,28.6099875 423.310876,46.5947352 421.579592,70.7183262 C420.693274,83.0597519 414.670308,96.8157776 405.668596,109.390914 C396.669641,121.962623 384.714685,133.323972 372.007116,140.884269 C359.294033,148.447993 345.869001,152.18325 333.908531,149.580222 C321.970804,146.981305 311.404596,138.046845 304.431905,120.079231 C290.393481,83.9089231 270.576413,67.0858745 255.719281,54.9994058 C255.275433,54.6382167 254.83634,54.2818253 254.402072,53.9288606 C247.557367,48.3705243 241.931659,43.8011743 238.560066,38.6732492 C235.001836,33.2608963 233.950798,27.213207 236.768201,18.6666652 Z" id="路径备份" stroke="url(#linearGradient-4)" stroke-width="2" opacity="0.3" mask="url(#mask-3)"></path>
                    <path d="M-78.8240705,333.453459 C-77.3628444,325.163888 -73.7930747,317.821116 -68.6285183,311.622187 C-63.4658608,305.425398 -56.731607,300.39889 -48.9857793,296.727825 C-33.4944694,289.385909 -14.0017488,287.486211 4.94245808,292.421957 C23.8883913,297.358239 42.2554274,309.123435 55.5171203,329.060896 C68.7667289,348.981553 76.9276821,377.067624 75.4821657,414.740485 C74.7421441,434.013603 69.713335,455.495846 62.197455,475.13394 C54.6838768,494.766683 44.7022172,512.509254 34.0921724,524.315871 C23.477524,536.12784 12.2684414,541.961044 2.28217837,537.895997 C-7.68509503,533.837371 -16.507234,519.884777 -22.3290055,491.825464 C-34.0502336,435.33972 -50.5962757,409.067828 -63.0010743,390.192867 C-63.3716605,389.628812 -63.7382762,389.07225 -64.1008638,388.521039 C-69.8157753,379.840804 -74.5128982,372.70503 -77.3279724,364.696952 C-80.2988771,356.244694 -81.1764299,346.800256 -78.8240705,333.453459 Z" id="路径备份" stroke="url(#linearGradient-5)" stroke-width="3" opacity="0.3" mask="url(#mask-3)"></path>
                </g>
                <g id="背景" transform="translate(20.000000, 188.000000)" fill="url(#radialGradient-6)" opacity="0.3">
                    <circle id="椭圆形备份-16" cx="167.5" cy="167.5" r="167.5"></circle>
                </g>
            </g>
        </g>
    </g>
</svg>