<?xml version="1.0" encoding="utf-8"?>
<!-- Designed by Vexels.com - 2020 All Rights Reserved - https://vexels.com/terms-and-conditions/  -->
<svg version="1.1" id="Capa_1" xmlns="http://www.w3.org/2000/svg" xmlns:xlink="http://www.w3.org/1999/xlink" x="0px" y="0px"
	 viewBox="0 0 1200 1200" enable-background="new 0 0 1200 1200" xml:space="preserve">
<g>
	<g>
		<path fill="#5C3882" d="M59.205,272.554c13.765,67.444,27.526,134.888,41.288,202.331c13.856-2.828,20.791-4.191,34.676-6.817
			c-12.793-67.635-25.585-135.269-38.38-202.903C81.739,268.011,74.222,269.49,59.205,272.554z"/>
		<path fill="#5C3882" d="M218.556,245.034c5.779,40.795,11.558,81.591,17.336,122.386c-18.105-39.134-36.854-78.044-56.175-116.593
			c-18.956,2.971-28.424,4.541-47.338,7.854c11.877,67.802,23.752,135.604,35.627,203.405c12.518-2.192,18.783-3.249,31.321-5.278
			c-7.967-49.215-15.933-98.429-23.901-147.643c23.249,46.613,45.698,93.624,67.331,141.01c14.342-2.06,21.519-3.038,35.883-4.885
			c-8.783-68.272-17.565-136.544-26.35-204.815C238.788,242.213,232.041,243.124,218.556,245.034z"/>
		<path fill="#5C3882" d="M326.073,279.763c-2.54-13.212,4.763-20.969,16.725-22.106c11.968-1.137,19.302,3.864,20.594,18.558
			c0.3,3.409,0.45,5.113,0.749,8.521c14.073-1.235,21.113-1.806,35.198-2.853c-0.192-2.588-0.289-3.883-0.481-6.471
			c-2.448-32.948-22.897-50.553-59.889-47.022c-36.991,3.531-54.989,26.346-49.934,57.507c7.879,48.572,74.893,58.51,82.492,101.547
			c2.343,13.267-5.324,20.595-16.602,21.677c-11.279,1.082-18.909-3.454-20.426-18.123c-0.607-5.868-0.911-8.804-1.518-14.672
			c-13.583,1.405-20.37,2.153-33.938,3.744c0.591,5.04,0.886,7.56,1.476,12.601c3.845,32.815,23.826,49.305,58.208,46.017
			c34.386-3.287,51.901-24.543,48.413-56.21C401.452,330.856,334.481,323.5,326.073,279.763z"/>
		<path fill="#5C3882" d="M474.014,428.028c-1.498-30.997-2.247-46.496-3.745-77.494c6.854-0.331,10.281-0.485,17.137-0.77
			c36.259-1.507,53.711-19.663,53.042-52.696c-0.217-10.736-0.326-16.105-0.543-26.841c-0.669-33.032-19.754-50.852-57.853-49.269
			c-22.443,0.933-33.662,1.518-56.087,2.924c4.306,68.698,8.61,137.397,12.915,206.096
			C452.93,429.099,459.957,428.708,474.014,428.028z M483.278,250.433c11.99-0.498,18.663,4.014,19.172,18.756
			c0.428,12.383,0.642,18.574,1.07,30.957c0.509,14.742-5.666,19.656-17.338,20.141c-6.936,0.289-10.402,0.444-17.336,0.779
			c-1.35-27.933-2.025-41.899-3.375-69.833C472.592,250.889,476.154,250.729,483.278,250.433z"/>
		<path fill="#5C3882" d="M602.51,425.176c0.269-68.833,0.537-137.666,0.804-206.499c-15.249-0.059-22.875-0.035-38.123,0.124
			c0.716,68.829,1.43,137.659,2.145,206.489C581.404,425.144,588.44,425.121,602.51,425.176z"/>
		<path fill="#5C3882" d="M673.909,342.371c5.024,0.16,7.537,0.246,12.561,0.431c16.527,0.607,23.468,8.056,22.584,27.212
			c-0.598,12.967-0.897,19.449-1.495,32.416c-0.775,16.798,0.361,20.098,2.024,25.492c14.315,0.679,21.47,1.07,35.776,1.957
			c-3.042-7.873-2.925-15.25-2.32-25.262c0.769-12.722,1.154-19.084,1.922-31.805c1.299-21.494-3.673-37.517-21.62-45.226
			c16.639-5.946,25.182-19.283,26.46-40.481c0.391-6.479,0.586-9.718,0.977-16.199c1.918-31.801-14.092-48.669-53.579-50.213
			c-23-0.899-34.503-1.224-57.513-1.628c-1.206,68.823-2.412,137.646-3.618,206.469c14.068,0.247,21.102,0.42,35.166,0.868
			C672.305,392.791,672.84,375.983,673.909,342.371z M676.864,249.489c7.264,0.231,10.895,0.359,18.157,0.641
			c13.361,0.517,18.882,7.299,18.204,22.03c-0.374,8.134-0.561,12.201-0.935,20.335c-0.759,16.502-9.357,21.398-23.064,20.886
			c-5.751-0.215-8.627-0.315-14.379-0.498C675.654,287.526,676.057,274.848,676.864,249.489z"/>
		<path fill="#5C3882" d="M772.474,431.711c14.042,1.026,21.06,1.589,35.089,2.817c5.999-68.571,11.997-137.143,17.996-205.715
			c-15.205-1.33-22.813-1.94-38.031-3.053C782.509,294.41,777.491,363.06,772.474,431.711z"/>
		<path fill="#5C3882" d="M931.564,364.888c-6.833-42.572-14.339-85.104-22.485-127.444c-19.028-2.27-28.551-3.319-47.607-5.245
			c-6.925,68.485-13.85,136.97-20.774,205.454c12.613,1.276,18.916,1.954,31.515,3.393c5.654-49.534,11.307-99.068,16.96-148.602
			c9.737,51.167,18.608,102.498,26.6,153.967c14.359,1.899,21.534,2.902,35.87,5.012c10.025-68.1,20.05-136.201,30.077-204.301
			c-13.476-1.984-20.219-2.933-33.714-4.744C942.525,283.214,937.044,324.051,931.564,364.888z"/>
		<path fill="#5C3882" d="M1070.987,259.414c-37.005-6.73-59.252,9.029-64.469,41.654c-6.781,42.415-10.172,63.623-16.953,106.038
			c-5.216,32.625,9.548,53.925,43.627,60.123c34.084,6.198,55.451-8.529,62.056-40.902c5.238-25.667,7.856-38.501,13.094-64.168
			c-20.303-4.143-30.471-6.111-50.833-9.842c-2.126,11.607-3.189,17.409-5.316,29.015c6.534,1.197,9.8,1.806,16.328,3.047
			c-2.841,14.955-4.261,22.433-7.102,37.388c-2.752,14.488-10.759,18.36-21.939,16.323c-11.174-2.037-17.295-8.484-14.759-23.011
			c7.672-43.941,11.508-65.911,19.181-109.852c2.537-14.531,10.965-18.767,22.821-16.606c11.861,2.161,18.259,9.1,15.506,23.592
			c-1.651,8.694-2.477,13.042-4.129,21.736c13.856,2.633,20.777,3.996,34.606,6.818c1.604-7.862,2.407-11.794,4.011-19.655
			C1123.324,288.74,1107.997,266.146,1070.987,259.414z"/>
		<path fill="#5C3882" d="M659.587,783.431c0,0,70.257-25.421,54.711-63.878c-15.546-38.457-86.406,33.439-86.406,33.439
			s34.366-81.005-22.966-101.079c-57.331-20.073-35.837,99.498-35.837,99.498s-55.313-64.886-90.442-52.175
			c-35.129,12.71,50.022,92.377,50.022,92.377s-95.542-7.61-99.471,41.703c-3.927,49.312,90.061,18.028,90.061,18.028
			s-51.139,57.959-5.754,111.197c45.385,53.241,66.605-76.887,66.605-76.887s43.802,112.044,85.587,93.66
			c41.785-18.383-26.675-132.39-26.675-132.39s122.191,62.459,117.609,3.165C752.048,790.795,659.587,783.431,659.587,783.431z"/>
	</g>
	<g>
		<path fill="#FF7B93" d="M1145.469,561.224c-1.543-0.366-3.514-0.063-4.998,1.635c-27.741,26.459-67.249,69.096-101.737,66.463
			c-8.68-0.663-2.242-20.836,6.827-42.601c13.277-31.869,29.294-71.108-5.286-78.173c-23.399-4.781-54.087,23.249-74.769,48.969
			c6.205-14.153,12.173-27.825,12.552-31.805c1.425-10.372-5.546-17.064-12.878-18.21c-5.239-0.819-10.321,0.98-12.948,5.828
			c-1.903,3.513-4.223,8.882-6.579,15.218c-27.846,26.18-68.362,58.25-104.051,57.883c-13.317-0.137-13.238-23.693-6.343-45.034
			c18.299-0.616,38.453-8.401,42.114-26.899c1.832-9.257-3.991-20.781-20.229-22.649c-21.857-2.515-41.098,6.816-51.657,27.38
			c-19.769,26.19-54.914,74.531-79.769,73.093c-14.36-0.83,3.35-35.754,5.486-72.331c1.163-19.907-6.447-39.406-28.115-40.397
			c-25.634-1.172-51.366,37.803-65.019,65.959c0.784-27.408-2.775-60.039-30.198-62.45c-0.949-0.006-1.423-0.009-2.372-0.014
			c-23.481-0.123-41.251,25.775-53.716,51.422c3.614-14.773,6.602-28.569,6.504-32.263c-0.282-10.585-8.398-15.83-16.039-15.668
			c-5.003,0.105-9.941,2.741-11.652,8.006c-0.546,1.68-1.109,3.816-1.661,6.167c-17.014,11.741-36.583,18.517-55.652,20.216
			c-0.422-3.22-0.832-6.195-1.482-8.658c-2.403-16.351-13.38-31.456-34.916-30.183c-17.546,1.037-32.122,10.728-40.568,26.049
			c-14.768,8.411-29.871,13.559-44.623,15.063c-8.83,0.901-18.297,0.671-27.041-2.102c1.787-7.475,3.477-14.212,4.473-19.06
			c4.747-23.081,4.634-46.213-15.243-44.934c-0.428,0.049-0.641,0.073-1.068,0.123c-26.708,3.077-37.756,51.911-0.662,69.588
			c-7.626,31.028-19.88,72.387-37.231,75.669c-23.528,4.449-15.683-72.134-18.259-83.514c-2.352-10.394-8.882-13.589-15.429-12.622
			c-6.811,1.005-13.399,6.834-13.591,12.636c-0.092,2.781-0.208,5.582-0.268,8.616c-2.99,13.329-16.781,73.342-31.372,75.878
			c-17.603,3.058-10.096-56.344-10.176-69.32c-0.053-8.685-6.552-11.52-13.318-10.316c-3.861,0.686-7.829,2.678-10.897,5.621
			c-1.183,0.624-2.206,1.634-2.844,3.138c-0.165,0.39-0.353,0.798-0.525,1.192c-0.478,0.849-0.867,1.744-1.191,2.675
			c-18.067,38.506-53.983,87.224-99.033,81.934c-7.546-0.886-11.627,10.573-3.773,11.802c40.364,6.311,84.082-32.166,101.888-65.694
			c1.411,13.971,5.474,27.623,13.189,37.934c8.132,10.867,17.941,11.646,30.471,9.481c12.445-2.653,23.882-30.277,31.171-54.361
			c4.085,19.544,14.998,60.312,42.503,56.449c23.504-3.302,39.396-49.165,48.826-83.612c10.817,2.774,22.418,3.772,33.541,2.653
			c12.034-1.211,23.698-4.69,34.542-9.643c-0.84,3.371-1.454,6.914-1.847,10.584c-3.104,28.965,13.767,55.916,43.865,54.814
			c29.276-2.044,39.54-33.117,40.888-57.643c19.233-1.382,37.86-7.426,52.881-15.934c-3.521,22.117-5.975,52.732-4.17,67.079
			c0.932,7.407,5.623,10.799,10.658,10.666c3.023-0.079,6.264-1.405,8.982-3.96c0.746-0.512,0.925-3.758,1.347-7.757
			c12.59-26.449,32.288-87.599,60.615-86.756c20.462,0.609,4.296,62.625,5.014,74.306c0.657,10.693,6.978,14.752,13.551,14.835
			c6.825,0.087,13.989-4.514,14.349-10.241c8.078-24.277,41.237-83.079,63.455-83.265c12.038-0.101-2.627,37.217-5.198,70.627
			c-1.389,18.057,4.283,40.258,26.024,42.721c0.702,0.039,1.053,0.059,1.754,0.099c26.227,1.488,54.857-29.827,75.756-56.156
			c0.052,23.639,15.65,48.164,38.54,49.982c33.464,2.659,76.152-24.984,101.746-47.561c-5.351,17.994-9.641,37.653-10.305,48.572
			c-0.433,7.128,3.46,11.339,8.466,12.096c3.008,0.454,6.451-0.281,9.591-2.317c1.117-0.58,2.54-6.416,3.928-11.998
			c18.13-31.67,54.766-77.248,85.415-77.656c11.089-0.147-5.5,27.648-17.219,56.887c-11.628,29.009-8.424,58.392,14.131,64.073
			c46.974,1.653,85.138-38.192,115.722-68.677C1151.837,567.364,1149.322,562.139,1145.469,561.224z M859.985,502.196
			c4.717,0.528,7.84,5.659,6.952,11.074c-2.385,11.518-15.331,16.802-28.015,17.984C845.34,514.883,854.482,501.579,859.985,502.196
			z M318.34,498.278c-0.836,4.099-2.009,10.267-3.802,17.504c-20.392-16.179-5.081-50.766,2.473-50.216
			C322.65,465.977,321.778,481.429,318.34,498.278z M459.355,550.675c-2.792,10.258-13.027,26.248-23.428,26.688
			c-18.258,0.773-19.939-30.07-13.875-54.496c12.13,5.37,25.724,7.984,38.725,8.505C461.036,535.98,461.554,542.593,459.355,550.675
			z M425.714,511.861c4.257-10.294,9.899-17.728,15.885-18.046c12.236-0.65,18.965,13.855,19.451,27.308
			C448.256,520.586,436.338,517.611,425.714,511.861z"/>
		<path fill="#FF7B93" d="M572.156,785.803c-14.501,14.829-0.9,69.714,33.056,52.258C639.17,820.605,605.92,751.274,572.156,785.803
			z"/>
	</g>
</g>
</svg>
